<svg width="16" height="14" viewBox="0 0 16 14" fill="none" xmlns="http://www.w3.org/2000/svg">
<path d="M14.8934 6.10474L14.8884 6.10257L1.54219 0.62461C1.42993 0.578115 1.30778 0.55988 1.18666 0.571537C1.06554 0.583193 0.949225 0.624378 0.848125 0.691407C0.741311 0.760668 0.653573 0.855122 0.592805 0.966269C0.532037 1.07742 0.500145 1.20177 0.5 1.32814V4.83158C0.50006 5.00434 0.561019 5.17166 0.67237 5.30472C0.783722 5.43777 0.938491 5.52822 1.11 5.56047L8.38906 6.89238C8.41767 6.89775 8.44348 6.91283 8.46205 6.93502C8.48062 6.9572 8.49078 6.98511 8.49078 7.01392C8.49078 7.04273 8.48062 7.07063 8.46205 7.09282C8.44348 7.11501 8.41767 7.13008 8.38906 7.13545L1.11031 8.46737C0.938851 8.49953 0.784092 8.58986 0.67269 8.72279C0.561288 8.85573 0.500219 9.02294 0.5 9.19564V12.6997C0.499917 12.8204 0.530111 12.9392 0.587871 13.0454C0.645632 13.1517 0.729152 13.2421 0.830938 13.3086C0.953375 13.3891 1.09706 13.4321 1.24406 13.4323C1.34626 13.4322 1.4474 13.4119 1.54156 13.3726L14.8875 7.92588L14.8934 7.9231C15.0731 7.8467 15.2262 7.71985 15.3337 7.55826C15.4413 7.39667 15.4986 7.20742 15.4986 7.01392C15.4986 6.82042 15.4413 6.63117 15.3337 6.46957C15.2262 6.30798 15.0731 6.18114 14.8934 6.10474Z" fill="#001A49"/>
</svg>
