<svg width="32" height="31" viewBox="0 0 32 31" fill="none" xmlns="http://www.w3.org/2000/svg">
<path opacity="0.5" fill-rule="evenodd" clip-rule="evenodd" d="M0 15.5C0 6.93959 7.16344 0 16 0C24.8366 0 32 6.93959 32 15.5C32 24.0604 24.8366 31 16 31C7.16344 31 0 24.0604 0 15.5Z" fill="#001A49"/>
<path fill-rule="evenodd" clip-rule="evenodd" d="M15.5341 7C13.2166 7 12.9258 7.00982 12.0155 7.04994C11.1071 7.09025 10.487 7.22957 9.94439 7.434C9.38314 7.64515 8.90704 7.9276 8.43273 8.38726C7.95805 8.84676 7.6665 9.30797 7.44783 9.85151C7.23627 10.3773 7.09227 10.9782 7.05138 11.8579C7.01067 12.7397 7 13.0216 7 15.2668C7 17.5119 7.01031 17.7928 7.05156 18.6745C7.09333 19.5546 7.23716 20.1553 7.448 20.681C7.66614 21.2247 7.9577 21.6859 8.43219 22.1454C8.90633 22.6052 9.38242 22.8884 9.94332 23.0995C10.4863 23.3039 11.1065 23.4433 12.0148 23.4836C12.925 23.5237 13.2157 23.5335 15.5331 23.5335C17.8508 23.5335 18.1407 23.5237 19.051 23.4836C19.9594 23.4433 20.5802 23.3039 21.1232 23.0995C21.6842 22.8884 22.1596 22.6052 22.6338 22.1454C23.1084 21.6859 23.4 21.2247 23.6187 20.6811C23.8284 20.1553 23.9724 19.5544 24.0151 18.6747C24.056 17.7929 24.0667 17.5119 24.0667 15.2668C24.0667 13.0216 24.056 12.7399 24.0151 11.8581C23.9724 10.978 23.8284 10.3773 23.6187 9.85169C23.4 9.30797 23.1084 8.84676 22.6338 8.38726C22.1591 7.92743 21.6844 7.64498 21.1226 7.434C20.5786 7.22957 19.9582 7.09025 19.0497 7.04994C18.1395 7.00982 17.8497 7 15.5315 7H15.5341ZM14.7686 8.48971C14.9958 8.48937 15.2493 8.48971 15.5341 8.48971C17.8125 8.48971 18.0826 8.49764 18.9823 8.53725C19.8143 8.5741 20.2659 8.70878 20.5667 8.82193C20.9649 8.97177 21.2488 9.15088 21.5473 9.44022C21.846 9.72956 22.0309 10.0051 22.1859 10.3909C22.3027 10.682 22.4419 11.1194 22.4798 11.9254C22.5207 12.7969 22.5295 13.0586 22.5295 15.2648C22.5295 17.471 22.5207 17.7328 22.4798 18.6043C22.4417 19.4103 22.3027 19.8477 22.1859 20.1388C22.0312 20.5246 21.846 20.7993 21.5473 21.0884C21.2486 21.3778 20.9651 21.5569 20.5667 21.7067C20.2662 21.8204 19.8143 21.9547 18.9823 21.9916C18.0827 22.0312 17.8125 22.0398 15.5341 22.0398C13.2555 22.0398 12.9854 22.0312 12.0859 21.9916C11.2539 21.9544 10.8023 21.8197 10.5013 21.7065C10.1031 21.5567 9.81866 21.3776 9.51999 21.0882C9.22132 20.7989 9.03643 20.524 8.88141 20.1381C8.7646 19.847 8.6254 19.4096 8.58754 18.6036C8.54665 17.7321 8.53847 17.4703 8.53847 15.2628C8.53847 13.0552 8.54665 12.7948 8.58754 11.9233C8.62558 11.1173 8.7646 10.6799 8.88141 10.3885C9.03607 10.0027 9.22132 9.72714 9.51999 9.43781C9.81866 9.14847 10.1031 8.96936 10.5013 8.81918C10.8021 8.70551 11.2539 8.57118 12.0859 8.53415C12.8731 8.4997 13.1782 8.48937 14.7686 8.48765V8.48971ZM20.0892 9.86234C19.5238 9.86234 19.0652 10.3062 19.0652 10.854C19.0652 11.4017 19.5238 11.846 20.0892 11.846C20.6545 11.846 21.1132 11.4017 21.1132 10.854C21.1132 10.3063 20.6545 9.86234 20.0892 9.86234ZM15.5341 11.0214C13.114 11.0214 11.1519 12.9222 11.1519 15.2667C11.1519 17.6112 13.114 19.5112 15.5341 19.5112C17.9543 19.5112 19.9157 17.6112 19.9157 15.2667C19.9157 12.9222 17.9543 11.0214 15.5341 11.0214ZM15.5341 12.5111C17.105 12.5111 18.3786 13.7448 18.3786 15.2667C18.3786 16.7885 17.105 18.0223 15.5341 18.0223C13.9631 18.0223 12.6896 16.7885 12.6896 15.2667C12.6896 13.7448 13.9631 12.5111 15.5341 12.5111Z" fill="white"/>
</svg>
