<svg width="143" height="30" viewBox="0 0 143 30" fill="none" xmlns="http://www.w3.org/2000/svg">
<path d="M21.7503 23.759L3.16028 11.384C1.27641 10.13 1.9168 7.51898 4.26594 6.90498L24.0238 1.72998C24.4423 1.58424 24.8908 1.53693 25.3321 1.59198C25.7733 1.64703 26.1947 1.80285 26.5611 2.04651C26.9274 2.29017 27.2283 2.61464 27.4387 2.99299C27.649 3.37134 27.7629 3.79266 27.7708 4.22198L26.5998 21.771C26.461 23.854 23.6342 25.013 21.7503 23.759Z" fill="#E9327C"/>
<path d="M15.8543 26.814L4.90233 6.14504C4.65198 5.6722 4.54182 5.14181 4.58398 4.61238C4.62615 4.08295 4.81901 3.57504 5.14129 3.14467C5.46358 2.7143 5.90276 2.37818 6.41042 2.17338C6.91808 1.96858 7.47449 1.90306 8.01828 1.98405L28.315 5.00704C28.7822 5.07665 29.2257 5.2523 29.609 5.51955C29.9922 5.78681 30.3042 6.13803 30.5195 6.54434C30.7346 6.95065 30.8468 7.40044 30.8467 7.85674C30.8466 8.31303 30.7343 8.7628 30.519 9.16904L21.1691 26.815C20.918 27.2865 20.5371 27.6821 20.0682 27.9582C19.5993 28.2344 19.0607 28.3804 18.5114 28.3803C17.9621 28.3802 17.4235 28.234 16.9547 27.9577C16.4859 27.6813 16.1052 27.2856 15.8543 26.814Z" fill="#1DACE3"/>
<path d="M27.7213 4.91801L17.6035 3.41101L5.18115 6.66601L10.1395 16.027L21.7505 23.759C22.0067 23.9277 22.2884 24.0569 22.5857 24.142L26.9959 15.819L27.7213 4.91801Z" fill="#001A49"/>
<path d="M42.624 11.184C43.296 11.184 43.904 11.3227 44.448 11.6C44.992 11.8667 45.4187 12.2827 45.728 12.848C46.048 13.4133 46.208 14.144 46.208 15.04V20H43.168V15.536C43.168 14.9173 43.04 14.4693 42.784 14.192C42.5387 13.904 42.192 13.76 41.744 13.76C41.424 13.76 41.1307 13.8347 40.864 13.984C40.5973 14.1227 40.3893 14.3413 40.24 14.64C40.0907 14.9387 40.016 15.328 40.016 15.808V20H36.976V8.128H40.016V13.792L39.312 13.072C39.6427 12.4427 40.096 11.9733 40.672 11.664C41.248 11.344 41.8987 11.184 42.624 11.184ZM52.578 20.144C51.6287 20.144 50.786 19.952 50.05 19.568C49.314 19.184 48.7327 18.656 48.306 17.984C47.89 17.3013 47.682 16.5227 47.682 15.648C47.682 14.7733 47.89 14 48.306 13.328C48.7327 12.656 49.314 12.1333 50.05 11.76C50.786 11.376 51.6287 11.184 52.578 11.184C53.5273 11.184 54.37 11.376 55.106 11.76C55.8527 12.1333 56.434 12.656 56.85 13.328C57.266 14 57.474 14.7733 57.474 15.648C57.474 16.5227 57.266 17.3013 56.85 17.984C56.434 18.656 55.8527 19.184 55.106 19.568C54.37 19.952 53.5273 20.144 52.578 20.144ZM52.578 17.728C52.93 17.728 53.2393 17.648 53.506 17.488C53.7833 17.328 54.002 17.0933 54.162 16.784C54.322 16.464 54.402 16.0853 54.402 15.648C54.402 15.2107 54.322 14.8427 54.162 14.544C54.002 14.2347 53.7833 14 53.506 13.84C53.2393 13.68 52.93 13.6 52.578 13.6C52.2367 13.6 51.9273 13.68 51.65 13.84C51.3833 14 51.1647 14.2347 50.994 14.544C50.834 14.8427 50.754 15.2107 50.754 15.648C50.754 16.0853 50.834 16.464 50.994 16.784C51.1647 17.0933 51.3833 17.328 51.65 17.488C51.9273 17.648 52.2367 17.728 52.578 17.728ZM62.5303 20.144C61.8263 20.144 61.1916 20.0053 60.6263 19.728C60.0716 19.4507 59.6343 19.0187 59.3143 18.432C59.0049 17.8347 58.8503 17.0827 58.8503 16.176V11.328H61.8903V15.68C61.8903 16.352 62.0129 16.832 62.2583 17.12C62.5143 17.408 62.8716 17.552 63.3303 17.552C63.6289 17.552 63.9009 17.4827 64.1463 17.344C64.3916 17.2053 64.5889 16.9867 64.7383 16.688C64.8876 16.3787 64.9623 15.984 64.9623 15.504V11.328H68.0023V20H65.1063V17.552L65.6663 18.24C65.3676 18.88 64.9356 19.36 64.3703 19.68C63.8049 19.9893 63.1916 20.144 62.5303 20.144ZM73.1124 20.144C72.3764 20.144 71.6564 20.0587 70.9524 19.888C70.259 19.7173 69.699 19.504 69.2724 19.248L70.1844 17.168C70.5897 17.4133 71.0644 17.6107 71.6084 17.76C72.1524 17.8987 72.6857 17.968 73.2084 17.968C73.7204 17.968 74.0724 17.9147 74.2644 17.808C74.467 17.7013 74.5684 17.5573 74.5684 17.376C74.5684 17.2053 74.4724 17.0827 74.2804 17.008C74.099 16.9227 73.8537 16.8587 73.5444 16.816C73.2457 16.7733 72.915 16.7253 72.5524 16.672C72.1897 16.6187 71.8217 16.5493 71.4484 16.464C71.0857 16.368 70.7497 16.2293 70.4404 16.048C70.1417 15.856 69.9017 15.6 69.7204 15.28C69.539 14.96 69.4484 14.5547 69.4484 14.064C69.4484 13.5093 69.6084 13.0187 69.9284 12.592C70.259 12.1547 70.739 11.8133 71.3684 11.568C71.9977 11.312 72.7657 11.184 73.6724 11.184C74.2804 11.184 74.8937 11.248 75.5124 11.376C76.1417 11.4933 76.6697 11.6747 77.0964 11.92L76.1844 13.984C75.7577 13.7387 75.331 13.5733 74.9044 13.488C74.4777 13.392 74.0724 13.344 73.6884 13.344C73.1764 13.344 72.8137 13.4027 72.6004 13.52C72.3977 13.6373 72.2964 13.7813 72.2964 13.952C72.2964 14.1227 72.387 14.256 72.5684 14.352C72.7497 14.4373 72.9897 14.5067 73.2884 14.56C73.5977 14.6027 73.9337 14.6507 74.2964 14.704C74.659 14.7467 75.0217 14.816 75.3844 14.912C75.7577 15.008 76.0937 15.152 76.3924 15.344C76.7017 15.5253 76.947 15.776 77.1284 16.096C77.3097 16.4053 77.4004 16.8053 77.4004 17.296C77.4004 17.8293 77.235 18.3093 76.9044 18.736C76.5844 19.1627 76.1044 19.504 75.4644 19.76C74.835 20.016 74.051 20.144 73.1124 20.144ZM81.8624 20.144C81.1264 20.144 80.4064 20.0587 79.7024 19.888C79.009 19.7173 78.449 19.504 78.0224 19.248L78.9344 17.168C79.3397 17.4133 79.8144 17.6107 80.3584 17.76C80.9024 17.8987 81.4357 17.968 81.9584 17.968C82.4704 17.968 82.8224 17.9147 83.0144 17.808C83.217 17.7013 83.3184 17.5573 83.3184 17.376C83.3184 17.2053 83.2224 17.0827 83.0304 17.008C82.849 16.9227 82.6037 16.8587 82.2944 16.816C81.9957 16.7733 81.665 16.7253 81.3024 16.672C80.9397 16.6187 80.5717 16.5493 80.1984 16.464C79.8357 16.368 79.4997 16.2293 79.1904 16.048C78.8917 15.856 78.6517 15.6 78.4704 15.28C78.289 14.96 78.1984 14.5547 78.1984 14.064C78.1984 13.5093 78.3584 13.0187 78.6784 12.592C79.009 12.1547 79.489 11.8133 80.1184 11.568C80.7477 11.312 81.5157 11.184 82.4224 11.184C83.0304 11.184 83.6437 11.248 84.2624 11.376C84.8917 11.4933 85.4197 11.6747 85.8464 11.92L84.9344 13.984C84.5077 13.7387 84.081 13.5733 83.6544 13.488C83.2277 13.392 82.8224 13.344 82.4384 13.344C81.9264 13.344 81.5637 13.4027 81.3504 13.52C81.1477 13.6373 81.0464 13.7813 81.0464 13.952C81.0464 14.1227 81.137 14.256 81.3184 14.352C81.4997 14.4373 81.7397 14.5067 82.0384 14.56C82.3477 14.6027 82.6837 14.6507 83.0464 14.704C83.409 14.7467 83.7717 14.816 84.1344 14.912C84.5077 15.008 84.8437 15.152 85.1424 15.344C85.4517 15.5253 85.697 15.776 85.8784 16.096C86.0597 16.4053 86.1504 16.8053 86.1504 17.296C86.1504 17.8293 85.985 18.3093 85.6544 18.736C85.3344 19.1627 84.8544 19.504 84.2144 19.76C83.585 20.016 82.801 20.144 81.8624 20.144ZM92.0044 20.144C90.9804 20.144 90.0844 19.952 89.3164 19.568C88.559 19.1733 87.967 18.64 87.5404 17.968C87.1244 17.2853 86.9164 16.512 86.9164 15.648C86.9164 14.784 87.119 14.016 87.5244 13.344C87.9404 12.6613 88.511 12.1333 89.2364 11.76C89.9617 11.376 90.7777 11.184 91.6844 11.184C92.5377 11.184 93.3164 11.36 94.0204 11.712C94.7244 12.0533 95.2844 12.56 95.7004 13.232C96.1164 13.904 96.3244 14.72 96.3244 15.68C96.3244 15.7867 96.319 15.9093 96.3084 16.048C96.2977 16.1867 96.287 16.3147 96.2764 16.432H89.4124V14.832H94.6604L93.5084 15.28C93.519 14.8853 93.4444 14.544 93.2844 14.256C93.135 13.968 92.9217 13.744 92.6444 13.584C92.3777 13.424 92.063 13.344 91.7004 13.344C91.3377 13.344 91.0177 13.424 90.7404 13.584C90.4737 13.744 90.2657 13.9733 90.1164 14.272C89.967 14.56 89.8924 14.9013 89.8924 15.296V15.76C89.8924 16.1867 89.9777 16.5547 90.1484 16.864C90.3297 17.1733 90.5857 17.4133 90.9164 17.584C91.247 17.744 91.6417 17.824 92.1004 17.824C92.527 17.824 92.8897 17.7653 93.1884 17.648C93.4977 17.52 93.8017 17.328 94.1004 17.072L95.7004 18.736C95.2844 19.1947 94.7724 19.5467 94.1644 19.792C93.5564 20.0267 92.8364 20.144 92.0044 20.144ZM97.726 20V8.128H100.766V20H97.726ZM102.742 20V8.128H105.782V20H102.742Z" fill="#001A49"/>
<path d="M110.27 11.54C111.524 11.54 112.54 10.5237 112.54 9.27C112.54 8.01632 111.524 7 110.27 7C109.016 7 108 8.01632 108 9.27C108 10.5237 109.016 11.54 110.27 11.54Z" fill="#001A49"/>
</svg>
