<svg width="32" height="31" viewBox="0 0 32 31" fill="none" xmlns="http://www.w3.org/2000/svg">
<path opacity="0.5" fill-rule="evenodd" clip-rule="evenodd" d="M0 15.5C0 6.93959 7.16344 0 16 0C24.8366 0 32 6.93959 32 15.5C32 24.0604 24.8366 31 16 31C7.16344 31 0 24.0604 0 15.5Z" fill="#001A49"/>
<path fill-rule="evenodd" clip-rule="evenodd" d="M24.0667 15.2552C24.0667 15.8143 24.0079 16.3725 23.8925 16.9167C23.78 17.448 23.6133 17.9696 23.395 18.4682C23.1817 18.958 22.9171 19.43 22.6079 19.8701C22.3033 20.3075 21.9524 20.7178 21.567 21.0919C21.1807 21.4643 20.7557 21.8033 20.3044 22.0996C19.8486 22.397 19.3607 22.653 18.8548 22.8606C18.3393 23.071 17.7997 23.2323 17.2518 23.3411C16.6893 23.4532 16.1109 23.5104 15.5329 23.5104C14.9546 23.5104 14.3762 23.4532 13.8145 23.3411C13.2658 23.2323 12.7262 23.071 12.2111 22.8606C11.7053 22.653 11.2169 22.397 10.761 22.0996C10.3098 21.8033 9.88475 21.4643 9.49931 21.0919C9.11347 20.7178 8.7626 20.3075 8.45759 19.8701C8.15007 19.43 7.88504 18.958 7.67088 18.4682C7.45251 17.9696 7.28544 17.448 7.17251 16.9167C7.05835 16.3725 7 15.8143 7 15.2552C7 14.6957 7.05832 14.1363 7.17255 13.5933C7.28547 13.062 7.45254 12.5396 7.67091 12.0418C7.88508 11.5517 8.15011 11.0793 8.45762 10.6391C8.76264 10.2013 9.11351 9.79177 9.49935 9.4173C9.88479 9.04483 10.3098 8.70667 10.7611 8.41081C11.2169 8.11211 11.7053 7.85618 12.2112 7.64817C12.7262 7.43731 13.2658 7.2757 13.8146 7.16769C14.3763 7.05645 14.9546 7 15.533 7C16.1109 7 16.6893 7.05645 17.2518 7.16769C17.7997 7.27573 18.3393 7.43735 18.8548 7.64817C19.3607 7.85615 19.8486 8.11211 20.3045 8.41081C20.7557 8.70667 21.1808 9.04483 21.567 9.4173C21.9525 9.79177 22.3033 10.2013 22.6079 10.6391C22.9171 11.0793 23.1817 11.5517 23.395 12.0418C23.6133 12.5396 23.78 13.062 23.8925 13.5933C24.0079 14.1363 24.0667 14.6957 24.0667 15.2552ZM12.4236 8.87877C10.3914 9.8071 8.87463 11.6186 8.40168 13.8017C8.5938 13.8033 11.6306 13.8404 15.1295 12.9411C13.8682 10.7733 12.5207 9.00417 12.4236 8.87877ZM15.7333 14.0266C11.9811 15.1133 8.38044 15.0351 8.25128 15.0303C8.24918 15.1061 8.24543 15.1794 8.24543 15.2552C8.24543 17.0662 8.95172 18.7173 10.1126 19.9657C10.1101 19.962 12.1044 16.5394 16.0371 15.3092C16.1321 15.2786 16.2288 15.2512 16.3246 15.2246C16.1417 14.8239 15.9421 14.4224 15.7333 14.0266ZM20.3457 9.9643C19.0627 8.8699 17.378 8.20606 15.5329 8.20606C14.9408 8.20606 14.3662 8.27539 13.8157 8.40357C13.9249 8.54547 15.2937 10.3021 16.54 12.5158C19.2898 11.5186 20.3277 9.99008 20.3457 9.9643ZM16.8214 16.3927C16.8051 16.3979 16.7889 16.4024 16.773 16.408C12.4733 17.858 11.0692 20.7802 11.054 20.8121C12.2911 21.7428 13.8429 22.3043 15.533 22.3043C16.5422 22.3043 17.5035 22.1056 18.3781 21.7457C18.2702 21.1298 17.8468 18.9708 16.8214 16.3927ZM19.6052 21.1015C21.2415 20.0334 22.4037 18.3372 22.7279 16.3725C22.5779 16.3258 20.539 15.7014 18.1868 16.0662C19.1427 18.6073 19.531 20.6767 19.6052 21.1015ZM17.101 13.5663C17.2701 13.9024 17.4339 14.2446 17.5851 14.5885C17.6389 14.7118 17.6914 14.8328 17.7427 14.9537C20.2461 14.6489 22.7125 15.1617 22.8179 15.1826C22.8013 13.5114 22.1833 11.9777 21.1608 10.7769C21.147 10.7958 19.9782 12.4295 17.101 13.5663Z" fill="white"/>
</svg>
