<svg width="96" height="96" viewBox="0 0 96 96" fill="none" xmlns="http://www.w3.org/2000/svg">
<path d="M51.4351 50.0629H50.7124L50.4563 49.8159C51.3528 48.773 51.8925 47.4191 51.8925 45.9463C51.8925 42.6621 49.2304 40 45.9463 40C42.6621 40 40 42.6621 40 45.9463C40 49.2304 42.6621 51.8925 45.9463 51.8925C47.4191 51.8925 48.773 51.3528 49.8159 50.4563L50.0629 50.7124V51.4351L54.6369 56L56 54.6369L51.4351 50.0629V50.0629ZM45.9463 50.0629C43.6684 50.0629 41.8296 48.2241 41.8296 45.9463C41.8296 43.6684 43.6684 41.8296 45.9463 41.8296C48.2241 41.8296 50.0629 43.6684 50.0629 45.9463C50.0629 48.2241 48.2241 50.0629 45.9463 50.0629Z" fill="#1F2937"/>
</svg>
