<svg width="32" height="31" viewBox="0 0 32 31" fill="none" xmlns="http://www.w3.org/2000/svg">
<path opacity="0.5" fill-rule="evenodd" clip-rule="evenodd" d="M0 15.5C0 6.93959 7.16344 0 16 0C24.8366 0 32 6.93959 32 15.5C32 24.0604 24.8366 31 16 31C7.16344 31 0 24.0604 0 15.5Z" fill="#001A49"/>
<path fill-rule="evenodd" clip-rule="evenodd" d="M16.5208 13.2986L16.5544 13.8349L15.9948 13.7693C13.9579 13.5175 12.1784 12.6637 10.6676 11.2299L9.92891 10.5184L9.73865 11.0438C9.33575 12.215 9.59316 13.4518 10.4325 14.2837C10.8802 14.7434 10.7795 14.8091 10.0073 14.5354C9.73865 14.4479 9.50363 14.3822 9.48124 14.415C9.4029 14.4917 9.6715 15.4877 9.88414 15.8818C10.1751 16.429 10.7683 16.9654 11.4174 17.2828L11.9658 17.5345L11.3167 17.5455C10.6899 17.5455 10.6676 17.5564 10.7347 17.7863C10.9585 18.4978 11.8427 19.253 12.8276 19.5814L13.5214 19.8112L12.9171 20.1615C12.0218 20.665 10.9697 20.9496 9.91772 20.9715C9.41409 20.9824 9 21.0262 9 21.059C9 21.1685 10.3654 21.7814 11.16 22.0222C13.5438 22.7337 16.3753 22.4272 18.5017 21.2123C20.0126 20.3476 21.5235 18.6291 22.2286 16.9654C22.6091 16.0788 22.9896 14.4588 22.9896 13.6817C22.9896 13.1782 23.0232 13.1125 23.6499 12.5105C24.0192 12.1602 24.3662 11.7772 24.4333 11.6677C24.5452 11.4597 24.534 11.4597 23.9633 11.6458C23.012 11.9742 22.8777 11.9304 23.3477 11.4378C23.6947 11.0876 24.1088 10.4527 24.1088 10.2667C24.1088 10.2338 23.9409 10.2886 23.7506 10.3871C23.5492 10.4965 23.1015 10.6607 22.7658 10.7592L22.1614 10.9453L21.613 10.5841C21.3108 10.3871 20.8856 10.1681 20.6617 10.1025C20.0909 9.94924 19.218 9.97113 18.7032 10.1463C17.3042 10.6388 16.4201 11.9085 16.5208 13.2986Z" fill="white"/>
</svg>
