<svg width="32" height="31" viewBox="0 0 32 31" fill="none" xmlns="http://www.w3.org/2000/svg">
<path opacity="0.5" fill-rule="evenodd" clip-rule="evenodd" d="M0 15.5C0 6.93959 7.16344 0 16 0C24.8366 0 32 6.93959 32 15.5C32 24.0604 24.8366 31 16 31C7.16344 31 0 24.0604 0 15.5Z" fill="#001A49"/>
<path fill-rule="evenodd" clip-rule="evenodd" d="M22.6679 10.1714C23.4022 10.3666 23.9805 10.9418 24.1768 11.6723C24.5335 12.9961 24.5335 15.7583 24.5335 15.7583C24.5335 15.7583 24.5335 18.5204 24.1768 19.8444C23.9805 20.5748 23.4022 21.15 22.6679 21.3453C21.3371 21.7 16.0001 21.7 16.0001 21.7C16.0001 21.7 10.6632 21.7 9.3323 21.3453C8.59795 21.15 8.01962 20.5748 7.82335 19.8444C7.4668 18.5204 7.4668 15.7583 7.4668 15.7583C7.4668 15.7583 7.4668 12.9961 7.82335 11.6723C8.01962 10.9418 8.59795 10.3666 9.3323 10.1714C10.6632 9.81665 16.0001 9.81665 16.0001 9.81665C16.0001 9.81665 21.3371 9.81665 22.6679 10.1714ZM14.4001 13.4333V18.5999L18.6668 16.0167L14.4001 13.4333Z" fill="white"/>
</svg>
